<mxfile host="app.diagrams.net" modified="2024-06-03T09:56:01.232Z" agent="Mozilla/5.0 (Windows NT 10.0; Win64; x64) AppleWebKit/537.36 (KHTML, like Gecko) Chrome/125.0.0.0 Safari/537.36" version="24.4.13" etag="kmAmSQ52yfpycR0T-0Jp" type="github">
  <diagram name="Page-1" id="hZOHAR1UowAb2DutFbei">
    <mxGraphModel>
      <root>
        <mxCell id="0" />
        <mxCell id="1" parent="0" />
      </root>
    </mxGraphModel>
  </diagram>
</mxfile>
